<mxfile host="app.diagrams.net" modified="2023-11-28T16:16:20.062Z" agent="Mozilla/5.0 (Macintosh; Intel Mac OS X 10_15_7) AppleWebKit/537.36 (KHTML, like Gecko) Chrome/119.0.0.0 Safari/537.36" version="22.1.4" etag="sd4kPJQkaIAjkcx1eZc0" type="github">
  <diagram name="Side-1" id="gHyIUQSCyC2yowt9J55g">
    <mxGraphModel>
      <root>
        <mxCell id="0" />
        <mxCell id="1" parent="0" />
      </root>
    </mxGraphModel>
  </diagram>
</mxfile>
